<svg xmlns="http://www.w3.org/2000/svg" viewBox="0 0 160 47.79"><defs><style>.cls-1{fill:#fff;}.cls-1,.cls-2{fill-rule:evenodd;}.cls-2{fill:#0287d0;}</style></defs><g id="Layer_2" data-name="Layer 2"><g id="Layer_1-2" data-name="Layer 1"><path class="cls-1" d="M50.35,21a24.58,24.58,0,0,1,.17,2.87,23.9,23.9,0,0,1-45.58,10L8.76,32A19.62,19.62,0,0,0,46.24,23.9c0-.21,0-.41,0-.61ZM26.62,0a23.9,23.9,0,0,1,22.2,15l-4.09,1.31A19.62,19.62,0,0,0,7,23.9c0,.13,0,.26,0,.4L3,27.57a23.49,23.49,0,0,1-.28-3.67A23.9,23.9,0,0,1,26.62,0Z"/><polygon class="cls-2" points="0 33.45 23.37 14.34 22.4 22.28 36.04 14.55 35.35 22.1 53.24 16.41 28.98 29.77 30.79 22.17 16.77 30.38 17.7 24.55 0 33.45"/><path class="cls-1" d="M145.51,24.16H154a2.16,2.16,0,0,0,1.59-.48,2.1,2.1,0,0,0,.47-1.49v-.92a2.1,2.1,0,0,0-.47-1.49A2.16,2.16,0,0,0,154,19.3H145.8c-.19,0-.29.08-.29.26Zm9.17-7.9a4.94,4.94,0,0,1,3.65,1.15,4.74,4.74,0,0,1,1.1,3.41v1.26a5.12,5.12,0,0,1-.77,3,3.72,3.72,0,0,1-2.52,1.42l3.78,4.69a.38.38,0,0,1,.07.34c0,.14-.15.22-.36.22h-2.85a.89.89,0,0,1-.4-.07.76.76,0,0,1-.22-.22l-3.5-4.6h-7.15v4.4a.43.43,0,0,1-.49.49h-2.39a.44.44,0,0,1-.51-.49V16.93a.59.59,0,0,1,.67-.67Zm-15.61,0a.44.44,0,0,1,.51.49v2.1c0,.33-.17.49-.51.49H129.4a6.27,6.27,0,0,0-1.43.14,2,2,0,0,0-.91.49,1.79,1.79,0,0,0-.47.93,6.52,6.52,0,0,0-.14,1.45v.22H139a.43.43,0,0,1,.49.49v1.75a.43.43,0,0,1-.49.48H126.45v.38a6.52,6.52,0,0,0,.14,1.45,1.79,1.79,0,0,0,.47.93,2,2,0,0,0,.91.49,6.27,6.27,0,0,0,1.43.14h9.67c.34,0,.51.16.51.49v2.1a.44.44,0,0,1-.51.49h-9.74a11.74,11.74,0,0,1-2.86-.31,4.42,4.42,0,0,1-1.91-1,4,4,0,0,1-1.08-1.81,9.31,9.31,0,0,1-.35-2.72v-3.8a9.08,9.08,0,0,1,.35-2.7,4.07,4.07,0,0,1,1.08-1.81,4.54,4.54,0,0,1,1.91-1,11.23,11.23,0,0,1,2.86-.32Zm-17.8,0a.44.44,0,0,1,.51.49v2.17a.45.45,0,0,1-.51.51h-7V31.27a.43.43,0,0,1-.48.49h-2.42a.43.43,0,0,1-.48-.49V19.43h-7a.45.45,0,0,1-.51-.51V16.75a.44.44,0,0,1,.51-.49Zm-19.9,0a.44.44,0,0,1,.51.49v2.1c0,.33-.17.49-.51.49H91.7a6.33,6.33,0,0,0-1.43.14,1.91,1.91,0,0,0-.9.49,1.88,1.88,0,0,0-.48.93,6.59,6.59,0,0,0-.13,1.45v.22h12.5a.43.43,0,0,1,.49.49v1.75a.43.43,0,0,1-.49.48H88.76v.38a6.59,6.59,0,0,0,.13,1.45,1.88,1.88,0,0,0,.48.93,1.91,1.91,0,0,0,.9.49,6.33,6.33,0,0,0,1.43.14h9.67c.34,0,.51.16.51.49v2.1a.44.44,0,0,1-.51.49H91.63a11.59,11.59,0,0,1-2.85-.31,4.52,4.52,0,0,1-1.92-1,4.1,4.1,0,0,1-1.08-1.81,9.34,9.34,0,0,1-.34-2.72v-3.8a9.11,9.11,0,0,1,.34-2.7,4.16,4.16,0,0,1,1.08-1.81,4.64,4.64,0,0,1,1.92-1,11.09,11.09,0,0,1,2.85-.32Zm-37.8,0a4.19,4.19,0,0,1,.84.07,1.62,1.62,0,0,1,.62.25,1.93,1.93,0,0,1,.47.51,6,6,0,0,1,.44.85l4.6,10.63a.32.32,0,0,0,.31.2h.27a.33.33,0,0,0,.31-.2L76,17.94a6,6,0,0,1,.43-.85,2,2,0,0,1,.48-.51,1.51,1.51,0,0,1,.61-.25,3.89,3.89,0,0,1,.83-.07h2.36a1.88,1.88,0,0,1,1.55.52,3,3,0,0,1,.4,1.78V31.27a.44.44,0,0,1-.51.49H79.93a.43.43,0,0,1-.49-.49V19.72c0-.15-.06-.23-.18-.23h-.2a.28.28,0,0,0-.29.18L74.3,29.59a6.08,6.08,0,0,1-.54,1,2.86,2.86,0,0,1-.6.68,1.89,1.89,0,0,1-.73.38,3.84,3.84,0,0,1-1,.11H70.41a4,4,0,0,1-1-.11,2,2,0,0,1-.73-.38,3.07,3.07,0,0,1-.59-.68,6.06,6.06,0,0,1-.55-1L63.1,19.67a.27.27,0,0,0-.29-.18h-.19c-.12,0-.18.08-.18.23V31.27a.43.43,0,0,1-.49.49H59.69a.44.44,0,0,1-.51-.49V18.56a3.05,3.05,0,0,1,.4-1.78,1.93,1.93,0,0,1,1.57-.52Z"/></g></g></svg>