<svg xmlns="http://www.w3.org/2000/svg" viewBox="0 0 180.32 53.86"><defs><style>.cls-1{fill:#010e35;fill-rule:evenodd;}</style></defs><g id="Layer_2" data-name="Layer 2"><g id="Layer_1-2" data-name="Layer 1"><path class="cls-1" d="M56.74,23.7a26.55,26.55,0,0,1,.19,3.23A26.93,26.93,0,0,1,5.56,38.25l4.31-2.17a22.11,22.11,0,0,0,42.24-9.15c0-.23,0-.45,0-.68ZM30,0A26.93,26.93,0,0,1,55,16.94l-4.61,1.47A22.11,22.11,0,0,0,7.89,26.93c0,.15,0,.3,0,.45L3.39,31.07A26.93,26.93,0,0,1,30,0Z"/><polygon class="cls-1" points="0 37.7 26.34 16.16 25.25 25.11 40.62 16.4 39.84 24.91 60.01 18.49 32.66 33.55 34.7 24.98 18.9 34.24 19.94 27.67 0 37.7"/><path class="cls-1" d="M164,27.23h9.56a2.42,2.42,0,0,0,1.79-.54,2.37,2.37,0,0,0,.53-1.68V24a2.37,2.37,0,0,0-.53-1.68,2.42,2.42,0,0,0-1.79-.54h-9.23q-.33,0-.33.3Zm10.33-8.9a5.52,5.52,0,0,1,4.12,1.3,5.33,5.33,0,0,1,1.24,3.84v1.42a5.83,5.83,0,0,1-.87,3.39,4.16,4.16,0,0,1-2.84,1.6l4.26,5.29a.37.37,0,0,1,.08.37c0,.17-.17.25-.4.25h-3.22a.94.94,0,0,1-.45-.07,1.17,1.17,0,0,1-.25-.25l-3.94-5.19H164v5a.48.48,0,0,1-.55.55h-2.69c-.38,0-.57-.18-.57-.55V19.08a.66.66,0,0,1,.74-.75Zm-17.59,0c.39,0,.58.18.58.55v2.37c0,.36-.19.55-.58.55h-10.9a6.61,6.61,0,0,0-1.61.16,2.19,2.19,0,0,0-1,.55,2,2,0,0,0-.54,1,7.64,7.64,0,0,0-.15,1.64v.25h14.1a.49.49,0,0,1,.55.55v2a.49.49,0,0,1-.55.55h-14.1v.42a7.48,7.48,0,0,0,.15,1.63,2.06,2.06,0,0,0,.54,1.05,2.19,2.19,0,0,0,1,.55,6.61,6.61,0,0,0,1.61.16h10.9c.39,0,.58.19.58.55v2.37c0,.37-.19.55-.58.55h-11a12.87,12.87,0,0,1-3.22-.35,5,5,0,0,1-2.16-1.13,4.63,4.63,0,0,1-1.22-2.05,10.45,10.45,0,0,1-.39-3.06V24.91a10.3,10.3,0,0,1,.39-3,4.56,4.56,0,0,1,1.22-2,5,5,0,0,1,2.16-1.15,12.38,12.38,0,0,1,3.22-.36Zm-20,0c.38,0,.57.18.57.55v2.44a.51.51,0,0,1-.57.58h-7.84V35.24a.48.48,0,0,1-.55.55h-2.71a.48.48,0,0,1-.55-.55V21.9h-7.84a.51.51,0,0,1-.57-.58V18.88c0-.37.19-.55.57-.55Zm-22.43,0c.38,0,.57.18.57.55v2.37a.5.5,0,0,1-.57.55h-10.9a6.56,6.56,0,0,0-1.61.16,2.09,2.09,0,0,0-1,.55,2,2,0,0,0-.54,1,7.64,7.64,0,0,0-.15,1.64v.25h14.1a.48.48,0,0,1,.54.55v2a.48.48,0,0,1-.54.55H100v.42a7.48,7.48,0,0,0,.15,1.63,2.06,2.06,0,0,0,.54,1.05,2.09,2.09,0,0,0,1,.55,6.56,6.56,0,0,0,1.61.16h10.9a.5.5,0,0,1,.57.55v2.37c0,.37-.19.55-.57.55h-11a12.85,12.85,0,0,1-3.21-.35,4.84,4.84,0,0,1-2.16-1.13,4.54,4.54,0,0,1-1.22-2.05,10.45,10.45,0,0,1-.39-3.06V24.91a10.3,10.3,0,0,1,.39-3,4.47,4.47,0,0,1,1.22-2,4.87,4.87,0,0,1,2.16-1.15,12.35,12.35,0,0,1,3.21-.36Zm-42.61,0a5.27,5.27,0,0,1,1,.07,1.76,1.76,0,0,1,.7.29,2,2,0,0,1,.53.57,6,6,0,0,1,.49,1l5.19,12a.35.35,0,0,0,.35.22h.3a.36.36,0,0,0,.35-.22l5.19-12a5.33,5.33,0,0,1,.48-1,2.12,2.12,0,0,1,.54-.57,1.8,1.8,0,0,1,.68-.29,5.08,5.08,0,0,1,.94-.07H91a2.12,2.12,0,0,1,1.75.58,3.42,3.42,0,0,1,.44,2V35.24c0,.37-.19.55-.57.55H90.08a.48.48,0,0,1-.55-.55v-13c0-.17-.07-.25-.2-.25H89.1a.31.31,0,0,0-.32.2l-5,11.18a7.77,7.77,0,0,1-.61,1.13,3.6,3.6,0,0,1-.67.76,2.35,2.35,0,0,1-.83.43,4.35,4.35,0,0,1-1.08.12h-1.2a4.37,4.37,0,0,1-1.09-.12,2.3,2.3,0,0,1-.82-.43,3.6,3.6,0,0,1-.67-.76,7.77,7.77,0,0,1-.61-1.13l-5-11.18a.32.32,0,0,0-.33-.2h-.22c-.13,0-.2.08-.2.25v13a.48.48,0,0,1-.55.55H67.28c-.39,0-.58-.18-.58-.55V20.92a3.41,3.41,0,0,1,.45-2,2.14,2.14,0,0,1,1.77-.58Z"/></g></g></svg>